<svg width="34" height="34" fill="none" xmlns="http://www.w3.org/2000/svg"><path fill-rule="evenodd" clip-rule="evenodd" d="M33.999 16.141c.002-2.057.004-4.1-.111-6.158-.132-2.722-.753-5.138-2.743-7.128C29.15.86 26.739.244 24.017.112 21.956-.004 19.91-.002 17.857 0a773.09 773.09 0 0 1-1.716 0c-2.057-.003-4.101-.005-6.158.11C7.26.245 4.845.866 2.855 2.856.86 4.85.244 7.26.112 9.983c-.116 2.06-.114 4.106-.111 6.16v1.714c-.003 2.055-.005 4.103.11 6.16.133 2.722.754 5.138 2.744 7.128 1.994 1.995 4.406 2.611 7.128 2.743 2.06.116 4.105.114 6.16.111h1.714c2.057.003 4.101.005 6.159-.11 2.722-.133 5.137-.754 7.128-2.744 1.994-1.994 2.61-4.406 2.743-7.128.117-2.023.114-4.034.111-6.057a613.634 613.634 0 0 1 0-1.819Zm-9.21-6.503a1.4 1.4 0 0 0-.73.097l-15.96 6.72c-1.113.468-1.17 2.077 0 2.563.866.359 1.928.654 3.072.844.627.105 1.152 0 2.158-.612 1.14-.694 4.589-3.161 6.738-4.783.866-.654 1.2-.244.467.466l-.828.798c-1.87 1.796-4.333 4.161-4.51 4.86-.24.947 1.705 2.277 2.34 2.692 1.269.83 2.68 1.625 3.63 2.141 1.136.617 2.495-.093 2.7-1.332l2.117-12.84a1.4 1.4 0 0 0-1.194-1.614Z" fill="#B3C8DB"/></svg>