<svg width="34" height="34" fill="none" xmlns="http://www.w3.org/2000/svg"><path fill-rule="evenodd" clip-rule="evenodd" d="M12.285 24.933a9.363 9.363 0 0 0 4.76 1.304c5.146 0 9.34-4.182 9.316-9.328a9.273 9.273 0 0 0-2.73-6.607 9.24 9.24 0 0 0-6.597-2.743c-5.145 0-9.339 4.194-9.339 9.339a9.366 9.366 0 0 0 1.428 4.964l.227.351-.94 3.446 3.535-.93.34.204Zm9.51-5.86.373.182.155.073c.192.088.314.145.378.245.08.124.08.68-.159 1.337-.227.657-1.349 1.258-1.893 1.337-.487.068-1.099.102-1.768-.113a13.7 13.7 0 0 1-1.598-.59c-2.687-1.159-4.493-3.8-4.766-4.198a3.866 3.866 0 0 0-.028-.04l-.002-.003c-.144-.192-1.142-1.523-1.142-2.898 0-1.276.617-1.954.909-2.273l.065-.073c.261-.284.556-.352.748-.352h.544c.02.002.04.002.062.002.163.002.373.005.573.486.227.566.793 1.949.861 2.085.068.136.114.295.023.487l-.023.046c-.078.157-.136.274-.26.419a6.41 6.41 0 0 0-.136.162 4.92 4.92 0 0 1-.284.325c-.147.148-.283.295-.124.578.17.284.725 1.202 1.564 1.95a7.252 7.252 0 0 0 2.094 1.322c.066.029.12.052.161.072.283.147.453.124.612-.068.159-.182.691-.816.884-1.1.193-.272.374-.226.635-.136.188.077 1.022.484 1.542.737Z" fill="#B3C8DB"/><path fill-rule="evenodd" clip-rule="evenodd" d="M11.793 0h10.431C31.751 0 34 2.266 34 11.793v10.431C34 31.751 31.732 34 22.207 34H11.776C2.249 34 0 31.732 0 22.207V11.776C0 2.266 2.266 0 11.793 0Zm9.556 6.517a11.126 11.126 0 0 1 3.641 2.448 11.16 11.16 0 0 1 3.287 7.944c0 6.188-5.044 11.232-11.232 11.232-1.88 0-3.728-.476-5.372-1.372l-5.95 1.564 1.587-5.825a11.263 11.263 0 0 1-1.496-5.61c0-6.188 5.043-11.231 11.231-11.231 1.477-.006 2.94.283 4.304.85Z" fill="#B3C8DB"/></svg>