<svg width="104" height="36" fill="none" xmlns="http://www.w3.org/2000/svg"><g clip-path="url(#a)"><path d="M3.116 35.929h-.877L1.14 34.352l-.402.311v1.266H0v-3.026h.738v1.02l1.29-1.02h1.026l-1.378 1.051 1.44 1.975Zm3.544-3.026L5.075 35.93h-.738l.542-1.031h-.397l-1.084-1.995h.784l.883 1.648.856-1.648h.737Zm2.955 2.143c0 .73-.645.954-1.47.954-.362 0-.857-.107-1.079-.245v-.673c.34.204.723.3 1.068.3.495 0 .743-.07.743-.336 0-.362-.258-.429-.738-.429h-.443v-.571h.423c.314 0 .629-.036.629-.28 0-.246-.366-.317-.598-.317-.46 0-.733.097-1.032.28v-.647c.253-.148.593-.25 1.016-.25.604 0 1.331.163 1.331.887 0 .291-.206.485-.371.587.335.128.52.378.52.74ZM13.076 35c0 .602-.412.929-1.212.929h-1.568v-3.026h2.517v.592h-1.785v.54h.841c.815 0 1.212.404 1.212.96l-.005.005Zm-.748 0c0-.26-.185-.383-.448-.383h-.852v.725h.862c.216 0 .438-.087.438-.342Zm3.916.332H14.51l-.263.597h-.773l1.361-3.026h1.094l1.362 3.026h-.78l-.262-.597h-.005Zm-1.486-.582h1.243l-.619-1.439-.619 1.439h-.005Zm4.606.602c.355 0 .696-.087.974-.27v.699c-.294.153-.67.219-.974.219-1.042 0-1.78-.633-1.78-1.587 0-1.005.722-1.586 1.78-1.586.34 0 .742.086.974.23v.698a1.771 1.771 0 0 0-.974-.28c-.62 0-1.022.341-1.022.938s.444.939 1.022.939Zm3.368 0c.356 0 .696-.087.975-.27v.699c-.294.153-.67.219-.975.219-1.042 0-1.78-.633-1.78-1.587 0-1.005.722-1.586 1.78-1.586.34 0 .742.086.975.23v.698a1.772 1.772 0 0 0-.975-.28c-.62 0-1.022.341-1.022.938s.444.939 1.022.939Zm4.812.577h-.877l-1.098-1.577-.403.311v1.266h-.737v-3.026h.737v1.02l1.29-1.02h1.026l-1.377 1.051 1.44 1.975Zm3.038-.597H28.85l-.263.597h-.773l1.361-3.026h1.094l1.361 3.026h-.778l-.263-.597h-.006Zm-1.485-.582h1.243l-.619-1.439-.619 1.439h-.005Zm2.786 1.179.8-1.215c-.32-.143-.558-.403-.558-.836 0-.674.526-.97 1.254-.97h1.346v3.026h-.738v-1.087h-.614l-.67 1.087h-.82v-.005Zm2.104-2.429h-.598c-.294 0-.51.107-.51.378 0 .27.21.387.5.387h.608V33.5Zm7.65-.597v3.026h-.723V33.31l-.907 2.618h-1.073l-.908-2.618v2.618h-.722v-3.026h1.264l.897 2.617.908-2.617h1.264Zm3.306 2.429H43.21l-.263.597h-.774l1.362-3.026h1.093l1.362 3.026h-.779l-.263-.597h-.005Zm-1.486-.582H44.7l-.619-1.439-.619 1.439h-.005Zm6.34-1.847v3.026h-.737V33.31l-1.3 2.618h-1.228v-3.026h.738v2.617l1.31-2.617h1.217Zm-.835-.908c-.14.439-.403.653-.862.653-.459 0-.717-.214-.861-.653h.603c.047.097.15.138.258.138.109 0 .212-.041.258-.138h.604Zm4.771.908v3.026h-.738v-1.296H51.35v1.296h-.738v-3.026h.738v1.123h1.645v-1.123h.738Zm4.085 0v3.026h-.738V33.31l-1.3 2.618h-1.227v-3.026h.737v2.617l1.31-2.617h1.218Zm3.936 0v3.026h-.738v-1.296H59.37v1.296h-.737v-3.026h.737v1.123h1.646v-1.123h.738Zm3.12 0v.628h-1.568v2.398h-.738v-3.026h2.306Zm3.89 1.51c0 .954-.712 1.587-1.795 1.587-1.084 0-1.79-.633-1.79-1.587s.717-1.586 1.79-1.586 1.795.627 1.795 1.586Zm-.759 0c0-.576-.438-.938-1.036-.938-.599 0-1.032.362-1.032.938 0 .577.444.939 1.032.939.588 0 1.036-.357 1.036-.939Zm4.101.551c0 .669-.49.965-1.13.965h-1.495v-3.026h1.279c.603 0 1.098.21 1.098.832a.604.604 0 0 1-.268.5c.289.122.516.398.516.73Zm-1.382-.908c.232 0 .443-.066.443-.28 0-.18-.118-.302-.402-.302h-.583v.577h.542v.005Zm.098.546h-.64v.75h.691c.35 0 .506-.122.506-.383 0-.245-.176-.362-.552-.362l-.005-.005Zm4.451.73H73.54l-.263.597h-.774l1.362-3.026h1.093l1.362 3.026h-.779l-.263-.597h-.005Zm-1.486-.582h1.243l-.618-1.439-.62 1.439h-.005Zm2.786 1.179.8-1.215c-.32-.143-.557-.403-.557-.836 0-.674.526-.97 1.253-.97h1.346v3.026h-.737v-1.087h-.614l-.67 1.087h-.82v-.005Zm2.105-2.429h-.599c-.294 0-.51.107-.51.378 0 .27.211.387.5.387h.609V33.5Zm5.617-.597v.628h-1.563v2.398h-.738v-3.026h2.3Zm3.157 1.005c0 .689-.506 1.005-1.238 1.005h-.65v1.02h-.738v-3.025h1.383c.732 0 1.243.316 1.243 1Zm-.748 0c0-.28-.207-.398-.5-.398h-.64v.806h.645c.288 0 .495-.127.495-.408Zm4.379-1.005L89.5 35.93h-.738l.542-1.031h-.398l-1.083-1.995h.784l.882 1.648.857-1.648h.737Zm3.663 0v3.026h-.738V33.53h-1.645v2.398h-.738v-3.026h3.121Zm3.935 0v3.026h-.737V33.53h-1.646v2.398h-.737v-3.026h3.12Zm3.312 2.429h-1.734l-.263.597h-.773l1.361-3.026h1.094l1.362 3.026h-.779l-.263-.597h-.005Zm-1.486-.582h1.243l-.619-1.439-.619 1.439h-.005Z" fill="#595959"/><path d="M90.464 7.821v21.164H78.126V.01h24.914v7.817H90.47l-.006-.006Zm-35.04 9.944L37.344 0v12.015l18.08 16.97 18.085-16.97V0L55.424 17.765ZM37.345 19.26v9.725h9.831l-9.831-9.725Zm36.163 0v9.725h-9.831l9.831-9.725Z" fill="#09295A"/><path d="m55.425 11.168 3.863-3.73h-7.722l3.859 3.73ZM66.974.01H43.881l2.46 2.378H64.52L66.974.01ZM47.77 3.765l2.367 2.291h10.58l2.367-2.29H47.77Z" fill="#FF8915"/><path d="M12.111 11.985h.114L20.297.01h12.4l-10.44 13.745 11.302 15.23H19.833L12.22 16.378h-.114v12.607H0V.01h12.111v11.98-.005Z" fill="#09295A"/></g><defs><clipPath id="a"><path fill="#fff" d="M0 0h103.034v36H0z"/></clipPath></defs></svg>