<svg width="21" height="20" fill="none" xmlns="http://www.w3.org/2000/svg"><path d="M17 12.917c-1 0-2.084-.167-3-.5h-.25a.757.757 0 0 0-.584.25L11.333 14.5C9 13.25 7 11.333 5.833 9l1.833-1.833c.25-.25.334-.584.167-.834-.25-.916-.417-2-.417-3 0-.416-.416-.833-.833-.833H3.666c-.416 0-.833.417-.833.833C2.833 11.167 9.166 17.5 17 17.5c.416 0 .833-.417.833-.833V13.75c0-.417-.417-.833-.833-.833ZM4.5 4.167h1.25c.083.75.25 1.5.416 2.166l-1 1c-.333-1-.583-2.083-.666-3.166Zm11.666 11.666C15.083 15.75 14 15.5 13 15.167l1-1c.666.166 1.416.333 2.166.333v1.333Z" fill="#3F6298"/></svg>