<svg width="34" height="34" fill="none" xmlns="http://www.w3.org/2000/svg"><path fill-rule="evenodd" clip-rule="evenodd" d="m34 14.83-.006-1.388-.012-1.296-.019-.913-.017-.58-.035-.834-.029-.528-.035-.51-.041-.49-.048-.472c-.278-2.467-.873-4.155-2.148-5.43C30.335 1.114 28.645.519 26.18.24l-.472-.047-.488-.042-.51-.036-.53-.03-.55-.022-.57-.02-.593-.016-.613-.01-1.295-.014L19.524 0h-5.049l-1.032.004-1.296.013-.913.018-.58.017-.834.036-.528.028-.51.036-.49.04-.472.049c-2.466.278-4.155.873-5.43 2.148C1.115 3.664.52 5.354.242 7.819l-.046.472-.043.488-.035.51-.03.53-.023.55-.02.571-.015.592-.01.614-.014 1.294L0 14.476v4.692l.006 1.389.012 1.296.019.912.017.581.035.833.029.529.035.51.041.49.048.472c.278 2.466.873 4.155 2.148 5.43 1.275 1.275 2.965 1.87 5.43 2.148l.472.046.489.043.51.035.53.03.549.023.57.02.593.015.614.01 1.294.014 1.034.005L19.17 34l1.388-.006 1.297-.012.912-.019.58-.017.834-.035.528-.029.51-.035.49-.041.472-.048c2.466-.278 4.155-.873 5.43-2.148 1.275-1.275 1.87-2.965 2.148-5.43l.046-.472.043-.489.035-.51.03-.53.023-.55.02-.57.015-.593.01-.613.014-1.295.005-1.034V14.83ZM5.738 10.34h3.881c.128 6.49 2.99 9.238 5.256 9.804v-9.803h3.655v5.596c2.238-.241 4.59-2.791 5.383-5.596h3.655c-.609 3.457-3.159 6.007-4.972 7.055 1.813.85 4.717 3.074 5.822 7.098h-4.023c-.864-2.692-3.017-4.775-5.865-5.058v5.058h-.44c-7.748 0-12.168-5.313-12.352-14.153Z" fill="#B3C8DB"/></svg>