<svg width="104" height="36" viewBox="0 0 104 36" fill="none" xmlns="http://www.w3.org/2000/svg">
<g clip-path="url(#clip0_300_968)">
<path d="M3.11554 35.9286H2.23865L1.13996 34.3521L0.737619 34.6633V35.9286H0V32.9031H0.737619V33.9235L2.02716 32.9031H3.05364L1.67641 33.9541L3.11554 35.9286Z" fill="#595959"/>
<path d="M6.65938 32.9031L5.07582 35.9286H4.3382L4.87981 34.898H4.48263L3.39941 32.9031H4.18346L5.0655 34.551L5.92176 32.9031H6.65938Z" fill="#595959"/>
<path d="M9.61454 35.0459C9.61454 35.7755 8.96977 36 8.14446 36C7.78339 36 7.28821 35.8929 7.06641 35.7551V35.0816C7.40685 35.2857 7.78855 35.3827 8.13415 35.3827C8.62933 35.3827 8.87692 35.3112 8.87692 35.0459C8.87692 34.6837 8.61902 34.6173 8.13931 34.6173H7.6957V34.0459H8.11867C8.43332 34.0459 8.74797 34.0102 8.74797 33.7653C8.74797 33.5204 8.38174 33.449 8.14962 33.449C7.69055 33.449 7.41716 33.5459 7.11799 33.7296V33.0816C7.37074 32.9337 7.71118 32.8316 8.13415 32.8316C8.73765 32.8316 9.46496 32.9949 9.46496 33.7194C9.46496 34.0102 9.25863 34.2041 9.09357 34.3061C9.42885 34.4337 9.61454 34.6837 9.61454 35.0459Z" fill="#595959"/>
<path d="M13.0762 35C13.0762 35.602 12.6635 35.9286 11.864 35.9286H10.2959V32.9031H12.8131V33.4949H11.0284V34.0357H11.8691C12.6841 34.0357 13.0813 34.4388 13.0813 34.9949L13.0762 35ZM12.3282 35C12.3282 34.7398 12.1425 34.6174 11.8795 34.6174H11.0284V35.3418H11.8898C12.1064 35.3418 12.3282 35.2551 12.3282 35Z" fill="#595959"/>
<path d="M16.2436 35.3316H14.5104L14.2474 35.9286H13.4736L14.8354 32.9031H15.9289L17.2907 35.9286H16.5118L16.2487 35.3316H16.2436ZM14.758 34.75H16.0011L15.3822 33.3112L14.7632 34.75H14.758Z" fill="#595959"/>
<path d="M19.3636 35.352C19.7195 35.352 20.0599 35.2653 20.3384 35.0816V35.7806C20.0444 35.9337 19.6679 36 19.3636 36C18.3216 36 17.584 35.3673 17.584 34.4133C17.584 33.4082 18.3061 32.8265 19.3636 32.8265C19.704 32.8265 20.1063 32.9133 20.3384 33.0561V33.7551C20.0341 33.5612 19.7092 33.4745 19.3636 33.4745C18.7446 33.4745 18.3422 33.8163 18.3422 34.4133C18.3422 35.0102 18.7858 35.352 19.3636 35.352Z" fill="#595959"/>
<path d="M22.7317 35.352C23.0876 35.352 23.4281 35.2653 23.7066 35.0816V35.7806C23.4126 35.9337 23.0361 36 22.7317 36C21.6898 36 20.9521 35.3673 20.9521 34.4133C20.9521 33.4082 21.6743 32.8265 22.7317 32.8265C23.0722 32.8265 23.4745 32.9133 23.7066 33.0561V33.7551C23.4023 33.5612 23.0773 33.4745 22.7317 33.4745C22.1127 33.4745 21.7104 33.8163 21.7104 34.4133C21.7104 35.0102 22.154 35.352 22.7317 35.352Z" fill="#595959"/>
<path d="M27.5442 35.9286H26.6674L25.5687 34.3521L25.1663 34.6633V35.9286H24.4287V32.9031H25.1663V33.9235L26.4559 32.9031H27.4823L26.1051 33.9541L27.5442 35.9286Z" fill="#595959"/>
<path d="M30.5824 35.3316H28.8493L28.5862 35.9286H27.8125L29.1743 32.9031H30.2678L31.6295 35.9286H30.8507L30.5876 35.3316H30.5824ZM29.0969 34.75H30.34L29.721 33.3112L29.102 34.75H29.0969Z" fill="#595959"/>
<path d="M31.8828 35.9286L32.6823 34.7143C32.3625 34.5714 32.1252 34.3112 32.1252 33.8776C32.1252 33.2041 32.6514 32.9082 33.3787 32.9082H34.725V35.9337H33.9873V34.8469H33.3735L32.703 35.9337H31.8828V35.9286ZM33.9873 33.5H33.389C33.095 33.5 32.8783 33.6071 32.8783 33.8776C32.8783 34.148 33.0898 34.2653 33.3787 34.2653H33.9873V33.5Z" fill="#595959"/>
<path d="M41.6366 32.9031V35.9286H40.9144V33.3112L40.0066 35.9286H38.9337L38.0259 33.3112V35.9286H37.3037V32.9031H38.5675L39.465 35.5204L40.3728 32.9031H41.6366Z" fill="#595959"/>
<path d="M44.9428 35.3316H43.2096L42.9466 35.9286H42.1729L43.5346 32.9031H44.6281L45.9899 35.9286H45.211L44.9479 35.3316H44.9428ZM43.4572 34.75H44.7004L44.0814 33.3112L43.4624 34.75H43.4572Z" fill="#595959"/>
<path d="M49.7974 32.9031V35.9286H49.0597V33.3112L47.7599 35.9286H46.5322V32.9031H47.2698V35.5204L48.58 32.9031H49.7974ZM48.9617 31.9949C48.8225 32.4337 48.5594 32.648 48.1003 32.648C47.6412 32.648 47.3833 32.4337 47.2389 31.9949H47.8424C47.8888 32.0918 47.992 32.1327 48.1003 32.1327C48.2086 32.1327 48.3118 32.0918 48.3582 31.9949H48.9617Z" fill="#595959"/>
<path d="M53.733 32.9031V35.9286H52.9954V34.6327H51.3499V35.9286H50.6123V32.9031H51.3499V34.0255H52.9954V32.9031H53.733Z" fill="#595959"/>
<path d="M57.8179 32.9031V35.9286H57.0802V33.3112L55.7804 35.9286H54.5527V32.9031H55.2904V35.5204L56.6005 32.9031H57.8179Z" fill="#595959"/>
<path d="M61.7535 32.9031V35.9286H61.0159V34.6327H59.3704V35.9286H58.6328V32.9031H59.3704V34.0255H61.0159V32.9031H61.7535Z" fill="#595959"/>
<path d="M64.8741 32.9031V33.5306H63.306V35.9286H62.5684V32.9031H64.8689H64.8741Z" fill="#595959"/>
<path d="M68.7636 34.4133C68.7636 35.3673 68.0518 36 66.9686 36C65.8854 36 65.1787 35.3673 65.1787 34.4133C65.1787 33.4592 65.8957 32.8265 66.9686 32.8265C68.0415 32.8265 68.7636 33.4541 68.7636 34.4133ZM68.0054 34.4133C68.0054 33.8367 67.5669 33.4745 66.9686 33.4745C66.3702 33.4745 65.937 33.8367 65.937 34.4133C65.937 34.9898 66.3806 35.352 66.9686 35.352C67.5566 35.352 68.0054 34.9949 68.0054 34.4133Z" fill="#595959"/>
<path d="M72.106 34.9643C72.106 35.6327 71.616 35.9286 70.9763 35.9286H69.4805V32.9031H70.7597C71.3632 32.9031 71.8584 33.1123 71.8584 33.7347C71.8584 33.9796 71.714 34.1531 71.5902 34.2347C71.879 34.3572 72.106 34.6327 72.106 34.9643ZM70.7236 34.0561C70.9557 34.0561 71.1672 33.9898 71.1672 33.7755C71.1672 33.5969 71.0486 33.4745 70.7649 33.4745H70.182V34.051H70.7236V34.0561ZM70.8216 34.602H70.182V35.3521H70.8732C71.2239 35.3521 71.3787 35.2296 71.3787 34.9694C71.3787 34.7245 71.2033 34.6072 70.8268 34.6072L70.8216 34.602Z" fill="#595959"/>
<path d="M75.2729 35.3316H73.5397L73.2767 35.9286H72.5029L73.8647 32.9031H74.9582L76.32 35.9286H75.5411L75.278 35.3316H75.2729ZM73.7873 34.75H75.0304L74.4115 33.3112L73.7925 34.75H73.7873Z" fill="#595959"/>
<path d="M76.5732 35.9286L77.3728 34.7143C77.053 34.5714 76.8157 34.3112 76.8157 33.8776C76.8157 33.2041 77.3418 32.9082 78.0691 32.9082H79.4154V35.9337H78.6778V34.8469H78.064L77.3934 35.9337H76.5732V35.9286ZM78.6778 33.5H78.0794C77.7854 33.5 77.5688 33.6071 77.5688 33.8776C77.5688 34.148 77.7803 34.2653 78.0691 34.2653H78.6778V33.5Z" fill="#595959"/>
<path d="M84.2947 32.9031V33.5306H82.7318V35.9286H81.9941V32.9031H84.2947Z" fill="#595959"/>
<path d="M87.4517 33.9082C87.4517 34.5969 86.9462 34.9133 86.2137 34.9133H85.5638V35.9337H84.8262V32.9082H86.2086C86.941 32.9082 87.4517 33.2245 87.4517 33.9082ZM86.7037 33.9082C86.7037 33.6276 86.4974 33.5102 86.2034 33.5102H85.5638V34.3163H86.2086C86.4974 34.3163 86.7037 34.1888 86.7037 33.9082Z" fill="#595959"/>
<path d="M91.0832 32.9031L89.4996 35.9286H88.762L89.3036 34.898H88.9065L87.8232 32.9031H88.6073L89.4893 34.551L90.3456 32.9031H91.0832Z" fill="#595959"/>
<path d="M94.7457 32.9031V35.9286H94.0081V33.5306H92.3626V35.9286H91.625V32.9031H94.7405H94.7457Z" fill="#595959"/>
<path d="M98.6812 32.9031V35.9286H97.9436V33.5306H96.2982V35.9286H95.5605V32.9031H98.6761H98.6812Z" fill="#595959"/>
<path d="M101.993 35.3316H100.259L99.9964 35.9286H99.2227L100.584 32.9031H101.678L103.04 35.9286H102.261L101.998 35.3316H101.993ZM100.507 34.75H101.75L101.131 33.3112L100.512 34.75H100.507Z" fill="#595959"/>
<path d="M90.4643 7.82143V28.9847H78.126V0.0102043H103.04V7.82653H90.4695L90.4643 7.82143Z" fill="#09295A"/>
<path d="M55.4241 17.7653L37.3447 0V12.0153L55.4241 28.9847L73.5087 12.0153V0L55.4241 17.7653Z" fill="#09295A"/>
<path d="M37.3447 19.2602V28.9847H47.1762L37.3447 19.2602Z" fill="#09295A"/>
<path d="M73.5082 19.2602V28.9847H63.6768L73.5082 19.2602Z" fill="#09295A"/>
<path d="M55.4247 11.1684L59.2882 7.43877H51.5664L55.4247 11.1684Z" fill="#FF8915"/>
<path d="M66.974 0.0102043H43.8809L46.3413 2.38776H64.5187L66.974 0.0102043Z" fill="#FF8915"/>
<path d="M47.7695 3.7653L50.1371 6.05612H60.7165L63.0841 3.7653H47.7695Z" fill="#FF8915"/>
<path d="M12.1114 11.9847H12.2249L20.2974 0.0101929H32.6977L22.2575 13.7551L33.5591 28.9847H19.8332L12.2197 16.3775H12.1062V28.9847H0V0.0101929H12.1114V11.9898V11.9847Z" fill="#09295A"/>
</g>
<defs>
<clipPath id="clip0_300_968">
<rect width="103.034" height="36" fill="white"/>
</clipPath>
</defs>
</svg>
