<svg width="21" height="20" viewBox="0 0 21 20" fill="none" xmlns="http://www.w3.org/2000/svg">
<path d="M10.3333 5.41675C10.8859 5.41675 11.4158 5.63624 11.8065 6.02694C12.1972 6.41764 12.4167 6.94755 12.4167 7.50008C12.4167 7.77367 12.3628 8.04458 12.2581 8.29734C12.1534 8.5501 11.9999 8.77977 11.8065 8.97322C11.613 9.16668 11.3834 9.32013 11.1306 9.42483C10.8778 9.52953 10.6069 9.58341 10.3333 9.58341C9.7808 9.58341 9.2509 9.36392 8.86019 8.97322C8.46949 8.58252 8.25 8.05262 8.25 7.50008C8.25 6.94755 8.46949 6.41764 8.86019 6.02694C9.2509 5.63624 9.7808 5.41675 10.3333 5.41675ZM10.3333 1.66675C11.8804 1.66675 13.3642 2.28133 14.4581 3.37529C15.5521 4.46925 16.1667 5.95299 16.1667 7.50008C16.1667 11.8751 10.3333 18.3334 10.3333 18.3334C10.3333 18.3334 4.5 11.8751 4.5 7.50008C4.5 5.95299 5.11458 4.46925 6.20854 3.37529C7.30251 2.28133 8.78624 1.66675 10.3333 1.66675ZM10.3333 3.33341C9.22826 3.33341 8.16846 3.7724 7.38706 4.5538C6.60565 5.3352 6.16667 6.39501 6.16667 7.50008C6.16667 8.33341 6.16667 10.0001 10.3333 15.5917C14.5 10.0001 14.5 8.33341 14.5 7.50008C14.5 6.39501 14.061 5.3352 13.2796 4.5538C12.4982 3.7724 11.4384 3.33341 10.3333 3.33341Z" fill="#3F6298"/>
</svg>
