<svg width="21" height="20" viewBox="0 0 21 20" fill="none" xmlns="http://www.w3.org/2000/svg">
<path d="M16.9997 12.9167C15.9997 12.9167 14.9163 12.75 13.9997 12.4167H13.7497C13.4997 12.4167 13.333 12.5 13.1663 12.6667L11.333 14.5C8.99967 13.25 6.99967 11.3333 5.83301 9L7.66634 7.16667C7.91634 6.91667 7.99967 6.58333 7.83301 6.33333C7.58301 5.41667 7.41634 4.33333 7.41634 3.33333C7.41634 2.91667 6.99967 2.5 6.58301 2.5H3.66634C3.24967 2.5 2.83301 2.91667 2.83301 3.33333C2.83301 11.1667 9.16634 17.5 16.9997 17.5C17.4163 17.5 17.833 17.0833 17.833 16.6667V13.75C17.833 13.3333 17.4163 12.9167 16.9997 12.9167ZM4.49967 4.16667H5.74967C5.83301 4.91667 5.99967 5.66667 6.16634 6.33333L5.16634 7.33333C4.83301 6.33333 4.58301 5.25 4.49967 4.16667ZM16.1663 15.8333C15.083 15.75 13.9997 15.5 12.9997 15.1667L13.9997 14.1667C14.6663 14.3333 15.4163 14.5 16.1663 14.5V15.8333Z" fill="#3F6298"/>
</svg>
