<svg width="34" height="34" viewBox="0 0 34 34" fill="none" xmlns="http://www.w3.org/2000/svg">
<path fill-rule="evenodd" clip-rule="evenodd" d="M33.9987 16.1414C34.001 14.0843 34.0033 12.0401 33.8875 9.98276C33.7557 7.26092 33.1348 4.84529 31.1445 2.85494C29.1499 0.860345 26.7386 0.243679 24.0168 0.11184C21.9557 -0.00391113 19.911 -0.00164489 17.8568 0.000631887C17.5713 0.000948338 17.2856 0.00126499 16.9997 0.00126499C16.7131 0.00126499 16.4269 0.000948199 16.141 0.000631678C14.084 -0.00164503 12.0398 -0.00390758 9.98257 0.11184C7.26079 0.243679 4.8452 0.864598 2.85489 2.85494C0.860329 4.84954 0.243674 7.26092 0.111838 9.98276C-0.00391105 12.0439 -0.00164486 14.0886 0.000631874 16.1428C0.00094832 16.4283 0.00126497 16.714 0.00126497 17C0.00126497 17.2859 0.000948408 17.5716 0.000632007 17.8572C-0.00164477 19.9122 -0.00391331 21.9598 0.111838 24.0172C0.243674 26.7391 0.864582 29.1547 2.85489 31.1451C4.84945 33.1397 7.26079 33.7563 9.98257 33.8882C12.0436 34.0039 14.0883 34.0016 16.1424 33.9994C16.428 33.9991 16.7137 33.9987 16.9997 33.9987C17.2862 33.9987 17.5725 33.9991 17.8585 33.9994C19.9154 34.0016 21.9595 34.0039 24.0168 33.8882C26.7386 33.7563 29.1542 33.1354 31.1445 31.1451C33.139 29.1505 33.7557 26.7391 33.8875 24.0172C34.005 21.9937 34.0021 19.9829 33.9991 17.9601C33.9986 17.6404 33.9981 17.3204 33.9981 17C33.9981 16.7135 33.9984 16.4273 33.9987 16.1414ZM24.7895 9.63772C24.5415 9.60413 24.289 9.63761 24.0584 9.73468L8.09839 16.4547C6.98586 16.9232 6.92893 18.5323 8.09933 19.0176C8.96546 19.377 10.0267 19.6719 11.1709 19.8623C11.7981 19.9668 12.3227 19.8623 13.3288 19.25C14.4693 18.5556 17.918 16.0888 20.0675 14.4667C20.9327 13.8133 21.2668 14.2231 20.5341 14.9333C20.2801 15.1793 20.0002 15.4482 19.7056 15.7311C17.8351 17.5274 15.3729 19.8921 15.1955 20.5912C14.9565 21.5376 16.9007 22.8676 17.5353 23.2829C18.8047 24.1127 20.2159 24.9079 21.166 25.424C22.3019 26.0409 23.6608 25.3307 23.8661 24.0921L25.9829 11.2523C26.0235 11.0054 25.9972 10.7521 25.9067 10.5188C25.8162 10.2855 25.6649 10.0807 25.4684 9.92572C25.2719 9.77077 25.0374 9.67132 24.7895 9.63772Z" fill="#B3C8DB"/>
</svg>
