<svg width="34" height="34" viewBox="0 0 34 34" fill="none" xmlns="http://www.w3.org/2000/svg">
<path fill-rule="evenodd" clip-rule="evenodd" d="M34 14.8303L33.9943 13.4419L33.9816 12.1456L33.9632 11.2332L33.9462 10.6524L33.9108 9.81933L33.8824 9.29089L33.847 8.78087L33.8059 8.29068L33.7578 7.81891C33.4801 5.35239 32.8851 3.66365 31.6101 2.3886C30.3351 1.11355 28.645 0.518522 26.18 0.240843L25.7083 0.194091L25.2195 0.15159L24.7095 0.116172L24.1797 0.0864203L23.63 0.0637527L23.0591 0.0439185L22.4669 0.0283345L21.8535 0.0184174L20.5587 0.00425018L19.5245 0H14.4755L13.4428 0.00425018L12.1465 0.0170007L11.2342 0.0354181L10.6533 0.0524189L9.82033 0.087837L9.29192 0.116172L8.78192 0.15159L8.29175 0.192675L7.82 0.240843C5.35358 0.518522 3.66492 1.11355 2.38992 2.3886C1.11492 3.66365 0.519917 5.35381 0.24225 7.81891L0.1955 8.29068L0.153 8.77945L0.117583 9.28947L0.0878333 9.81933L0.0651667 10.369L0.0453333 10.94L0.02975 11.5321L0.0198333 12.1456L0.00566667 13.4405L0.00141667 14.4747L0 19.1683L0.00566667 20.5567L0.0184167 21.853L0.0368333 22.7654L0.0538333 23.3462L0.08925 24.1793L0.117583 24.7077L0.153 25.2177L0.194083 25.7079L0.24225 26.1797C0.519917 28.6462 1.11492 30.3349 2.38992 31.61C3.66492 32.885 5.355 33.4801 7.82 33.7577L8.29175 33.8045L8.7805 33.847L9.2905 33.8824L9.82033 33.9122L10.37 33.9348L10.9409 33.9547L11.5331 33.9702L12.1465 33.9802L13.4413 33.9943L14.4755 33.9986L19.1689 34L20.5573 33.9943L21.8535 33.9816L22.7658 33.9632L23.3467 33.9462L24.1797 33.9107L24.7081 33.8824L25.2181 33.847L25.7083 33.8059L26.18 33.7577C28.6464 33.4801 30.3351 32.885 31.6101 31.61C32.8851 30.3349 33.4801 28.6448 33.7578 26.1797L33.8045 25.7079L33.847 25.2191L33.8824 24.7091L33.9122 24.1793L33.9348 23.6296L33.9547 23.0586L33.9702 22.4664L33.9802 21.853L33.9943 20.5581L33.9986 19.5239L34 14.8303ZM5.7375 10.3407H9.61917C9.74667 16.8293 12.6083 19.5777 14.875 20.1444V10.3407H18.53V15.9367C20.7683 15.6959 23.12 13.1458 23.9133 10.3407H27.5683C26.9592 13.7975 24.4092 16.3476 22.5958 17.396C24.4092 18.246 27.3133 20.4703 28.4183 24.4938H24.395C23.5308 21.802 21.3775 19.7194 18.53 19.4361V24.4938H18.0908C10.3417 24.4938 5.92167 19.181 5.7375 10.3407Z" fill="#B3C8DB"/>
</svg>
