<svg width="34" height="34" viewBox="0 0 34 34" fill="none" xmlns="http://www.w3.org/2000/svg">
<path fill-rule="evenodd" clip-rule="evenodd" d="M12.2854 24.9333C13.7247 25.7833 15.3681 26.2366 17.0454 26.2366C22.1907 26.2366 26.3841 22.0546 26.3614 16.9093C26.366 15.682 26.1269 14.466 25.658 13.3318C25.1892 12.1976 24.4999 11.1678 23.6301 10.3019C21.8734 8.53393 19.5274 7.55926 17.0341 7.55926C11.8887 7.55926 7.69539 11.7526 7.69539 16.8979C7.69668 18.6537 8.1915 20.3738 9.12339 21.8619L9.35006 22.2133L8.40939 25.6586L11.9454 24.7293L12.2854 24.9333ZM21.7948 19.0739C21.9633 19.156 22.0987 19.222 22.1681 19.2553C22.2241 19.2822 22.2757 19.306 22.3231 19.3278C22.5151 19.4163 22.6371 19.4726 22.7007 19.5726C22.7801 19.6973 22.7801 20.2526 22.5421 20.9099C22.3154 21.5673 21.1934 22.1679 20.6494 22.2473C20.1621 22.3153 19.5501 22.3493 18.8814 22.1339C18.4734 22.0093 17.9521 21.8393 17.2834 21.5446C14.5963 20.3852 12.7896 17.7445 12.5172 17.3463C12.5047 17.328 12.4954 17.3144 12.4894 17.3059L12.4872 17.303C12.3429 17.1106 11.3447 15.78 11.3447 14.4046C11.3447 13.1289 11.9622 12.4514 12.2535 12.1316C12.278 12.1048 12.3001 12.0805 12.3194 12.0586C12.5801 11.7753 12.8747 11.7073 13.0674 11.7073H13.6114C13.6311 11.7086 13.6517 11.7088 13.673 11.7091C13.8363 11.7111 14.0456 11.7136 14.2461 12.1946C14.4727 12.7613 15.0394 14.1439 15.1074 14.2799C15.1754 14.4159 15.2207 14.5746 15.1301 14.7673C15.1223 14.7827 15.1148 14.7978 15.1075 14.8125C15.0291 14.9701 14.9711 15.0868 14.8467 15.2319C14.8033 15.2826 14.7576 15.3379 14.7114 15.3937C14.6129 15.5128 14.5123 15.6344 14.4274 15.7193C14.2801 15.8666 14.1441 16.0139 14.3027 16.2973C14.4727 16.5806 15.0281 17.4986 15.8667 18.2466C16.7776 19.0606 17.5725 19.4023 17.961 19.5693C18.0268 19.5976 18.081 19.6209 18.1221 19.6406C18.4054 19.7879 18.5754 19.7653 18.7341 19.5726C18.8927 19.3913 19.4254 18.7566 19.6181 18.4733C19.8107 18.2013 19.9921 18.2466 20.2527 18.3373C20.441 18.4143 21.2754 18.8208 21.7948 19.0739Z" fill="#B3C8DB"/>
<path fill-rule="evenodd" clip-rule="evenodd" d="M11.7929 0H22.2241C31.7509 0 34 2.2661 34 11.7929V22.2241C34 31.7509 31.7322 34 22.2071 34H11.7759C2.2491 34 0 31.7322 0 22.2071V11.7759C0 2.2661 2.2661 0 11.7929 0ZM21.3494 6.51665C22.7134 7.08289 23.951 7.91504 24.9901 8.9646C27.1094 11.0839 28.2767 13.9059 28.2767 16.9093C28.2767 23.0973 23.2334 28.1406 17.0454 28.1406C15.1641 28.1406 13.3167 27.6646 11.6734 26.7693L5.72339 28.3333L7.31006 22.5079C6.33539 20.8079 5.81406 18.8813 5.81406 16.8979C5.81406 10.7099 10.8574 5.6666 17.0454 5.6666C18.5223 5.66145 19.9854 5.95042 21.3494 6.51665Z" fill="#B3C8DB"/>
</svg>
